<svg t="1598841418722" class="icon" viewBox="0 0 1024 1024" version="1.1" xmlns="http://www.w3.org/2000/svg" p-id="2119" width="16" height="16"><path d="M512 65.55648c-246.90688 0-447.84128 200.81152-447.84128 447.84128S265.09312 961.23904 512 961.23904s447.83616-200.81152 447.83616-447.84128S759.02976 65.55648 512 65.55648z m0 865.76128c-230.48704 0-417.92-187.55584-417.92-417.92 0-230.48704 187.55072-418.03776 417.92-418.03776 230.48704 0 418.03776 187.5456 418.03776 417.91488 0 230.61504-187.5456 418.04288-418.03776 418.04288z m24.448-418.76992l198.5024-199.22944c6.44096-6.4512 6.44096-17.152 0-23.59808a16.45056 16.45056 0 0 0-23.48032 0l-199.4752 200.20224-199.3472-200.20224a16.44544 16.44544 0 0 0-23.4752 0 16.80896 16.80896 0 0 0 0 23.59808l198.5024 199.22944-198.5024 199.35232a16.80896 16.80896 0 0 0 0 23.59296 16.45056 16.45056 0 0 0 23.4752 0L512 535.29088l199.3472 200.20224a16.45056 16.45056 0 0 0 23.4752 0 16.81408 16.81408 0 0 0 0-23.59296l-198.3744-199.35232z" p-id="2120" fill="#8a8a8a"></path></svg>